/* XPM */
static char * N1_xpm[] = {
"40 40 6 1",
" 	c #000000",
".	c #5C5C5C",
"+	c #5E5E5E",
"@	c #353535",
"#	c #373737",
"$	c #383838",
"                                        ",
"                                        ",
"                                        ",
"                                        ",
"                                        ",
"                                        ",
"                                        ",
"                                        ",
"                .+......                ",
"                ........                ",
"                ........                ",
"                +.......                ",
"         .......++++++++.......         ",
"         .......++++++++.......         ",
"         .......++++++++.......         ",
"         .......++++++++.......         ",
"                .+......                ",
"                .+......                ",
"                .+......                ",
"                .+......                ",
"                .++.....                ",
"                ..+.....                ",
"                ..+.....                ",
"                ..+.....                ",
"                ..+.....                ",
"                ........                ",
"          ..+++++.+.+.+......           ",
"        ..+++...++++..........          ",
"     ++.++++++++++++++++......+.....    ",
"   ....++.............................  ",
" @@#$$########$@@@@@@@@@@@@@@@@@@@@@@@@ ",
" @#@@##@@@@@@#@@@@@@@@@#######@@@@@@@@@ ",
" @@######@@@@@@@@@@@@@@@@@@@@@@@@@@@@@@ ",
" @@@@@@##@@@@@@@@@@@@@@@@@@@@@@@@@@@@@@ ",
"                                        ",
"                                        ",
"                                        ",
"                                        ",
"                                        ",
"                                        "};
