/* XPM */
static char * player_down_xpm[] = {
"40 40 95 2",
"  	c None",
". 	c #010000",
"+ 	c #1C1301",
"@ 	c #3C2901",
"# 	c #7E5203",
"$ 	c #AE7103",
"% 	c #C78104",
"& 	c #D38B04",
"* 	c #A76D03",
"= 	c #211601",
"- 	c #5A3B02",
"; 	c #9A6503",
"> 	c #C37F04",
", 	c #DB8E04",
"' 	c #DF9104",
") 	c #543902",
"! 	c #4B3502",
"~ 	c #BE7C03",
"{ 	c #E29404",
"] 	c #120C00",
"^ 	c #855702",
"/ 	c #EA9C04",
"( 	c #EBA305",
"_ 	c #F2A505",
": 	c #F5AB05",
"< 	c #F9AE05",
"[ 	c #442E01",
"} 	c #E39D04",
"| 	c #EEA905",
"1 	c #FFB505",
"2 	c #3A2601",
"3 	c #CB8404",
"4 	c #FFBA14",
"5 	c #FFB80F",
"6 	c #453101",
"7 	c #FFBF24",
"8 	c #FFB60A",
"9 	c #FFCA4A",
"0 	c #DC9C04",
"a 	c #090600",
"b 	c #8D6403",
"c 	c #FFC334",
"d 	c #FFD05E",
"e 	c #FFC844",
"f 	c #D49604",
"g 	c #171100",
"h 	c #623101",
"i 	c #FFD162",
"j 	c #614502",
"k 	c #9F6803",
"l 	c #FFBC1C",
"m 	c #FFD369",
"n 	c #AA7904",
"o 	c #E3A105",
"p 	c #221901",
"q 	c #8C5C03",
"r 	c #FFC12C",
"s 	c #FFCF5A",
"t 	c #956903",
"u 	c #B67703",
"v 	c #CA9004",
"w 	c #D27E03",
"x 	c #CA7B03",
"y 	c #C46C02",
"z 	c #B15601",
"A 	c #9F5001",
"B 	c #A24301",
"C 	c #7E3701",
"D 	c #983700",
"E 	c #471A00",
"F 	c #C38A04",
"G 	c #943500",
"H 	c #230C00",
"I 	c #BC8604",
"J 	c #CA7503",
"K 	c #855D02",
"L 	c #B45901",
"M 	c #6B2600",
"N 	c #AA4C01",
"O 	c #481900",
"P 	c #342501",
"Q 	c #654802",
"R 	c #5E4302",
"S 	c #0E0A00",
"T 	c #D79804",
"U 	c #622300",
"V 	c #B27E04",
"W 	c #2A0F00",
"X 	c #AA5E02",
"Y 	c #140700",
"Z 	c #8B4701",
"` 	c #2A1E01",
" .	c #3E1F00",
"..	c #916603",
"+.	c #704502",
"                                  . . . . . .                                   ",
"                          . + @ # $ % & & % * # @ = .                           ",
"                      = - ; > , ' ' ' ' ' ' ' ' , > ; ) +                       ",
"                  . ! ~ , ' ' ' ' ' ' ' ' ' ' ' { , { , ~ ! .                   ",
"                ] ^ , ' ' { ' ' ' ' ' { / ( _ : : < _ _ ( / ^ ]                 ",
"              [ % ' ' ' { , ' ' } | < 1 1 1 1 1 1 1 1 1 1 1 1 } !               ",
"            2 3 ' ' ' ' , ' { _ 1 1 1 1 1 1 1 1 1 1 1 1 1 4 5 1 ( 6             ",
"          @ % { ' ' ' { { ( < 1 1 1 1 1 1 1 1 1 1 1 1 1 1 1 7 7 1 ( 6           ",
"        ] > { , ' ' ' ' _ 1 1 1 1 1 1 1 1 1 1 1 1 1 1 1 1 1 8 9 7 1 0 a         ",
"      . ^ , , { ' ' { < 1 1 1 1 1 1 1 1 1 1 1 1 1 1 1 1 1 1 1 4 9 4 1 b .       ",
"      [ , { { ' ' { 1 1 1 1 1 1 1 1 1 1 1 1 1 1 1 1 1 1 1 1 1 1 c d 5 1 !       ",
"    = ~ , { , ' ' 1 1 1 1 1 1 1 1 1 1 1 1 1 1 1 1 1 1 1 1 1 1 1 4 d e 1 f g     ",
"    h , ' ' , { < 1 1 1 1 1 1 1 1 1 1 1 1 1 1 1 1 1 1 1 1 1 1 1 1 9 i 4 1 j     ",
"  a k ' ' ' ' / 1 1 1 1 1 1 1 1 1 1 1 1 1 1 1 1 1 1 1 1 1 1 1 1 1 l m e 1 n a   ",
"  + % { , { { 1 1 1 1 1 1 1 1 1 1 1 1 1 1 1 1 1 1 1 1 1 1 1 1 1 1 1 d i 8 o p   ",
"  6 ' ' { , : 1 1 1 1 1 1 1 1 1 1 1 1 1 1 1 1 1 1 1 1 1 1 1 1 1 1 1 e m c 1 !   ",
"  q , { , / 1 1 1 1 1 1 1 1 1 1 1 1 1 _ o 1 1 1 1 1 1 1 1 1 1 1 1 1 r m s 8 t   ",
". u { , { _ 1 1 1 1 1 1 1 1 1 1 1 1 1 { & 1 1 1 1 1 1 1 1 1 1 1 1 1 r m d 4 v . ",
". & , { , 1 1 1 1 1 1 1 1 1 1 1 1 1 1 w x 1 1 1 1 1 1 1 1 1 1 1 1 1 l m m r < . ",
". ' { , { 1 1 1 1 1 1 1 1 1 1 1 1 1 1 y u 1 1 1 1 1 1 1 1 1 1 1 1 1 4 m m r 1 . ",
". ' ' ' / 1 1 1 1 1 1 1 1 1 1 1 1 1 1 z A 1 1 1 1 1 1 1 1 1 1 1 1 1 5 m c 5 1 . ",
". , ' ' _ 1 1 1 1 1 1 1 1 1 1 1 1 1 1 B C 1 1 1 1 1 1 1 1 1 1 1 1 1 1 r 1 1 < . ",
". u ' ' : 1 1 1 1 1 1 1 1 1 1 1 1 1 < D E _ 1 1 1 1 1 1 1 1 1 1 1 1 1 1 1 1 F . ",
"  q ' ' < 1 1 1 1 1 1 1 1 1 1 1 1 1 { G H I 1 1 1 1 1 1 1 1 1 1 1 1 1 1 1 1 t   ",
"  [ ' ' < 1 1 1 1 1 1 1 1 1 1 1 1 1 J G . K 1 1 1 1 1 1 1 1 1 1 1 1 1 1 1 1 !   ",
"  = % ' 1 1 1 1 1 1 1 1 1 1 1 1 1 1 L M . ! 1 1 1 1 1 1 1 1 1 1 1 < < 1 1 o p   ",
"  . ; { < 1 1 1 1 1 1 1 1 1 1 1 1 < N O   P | 1 1 1 1 1 1 1 1 1 | @ g o 1 I .   ",
"    - , < 1 1 1 1 1 1 1 1 1 1 1 1 _ B H   + 0 1 1 1 1 1 1 1 1 : Q a . I < R     ",
"    + u _ 1 1 1 1 1 1 1 1 1 1 1 1 / D .   S v 1 1 1 1 1 1 1 1 R a . . | T p     ",
"      [ ( 1 1 1 1 1 1 1 1 1 1 1 1 , U .   . V 1 1 1 1 1 1 1 F a . . 6 1 6       ",
"      . q 1 1 1 1 1 1 1 1 1 1 1 1 J W       K 1 1 1 1 1 1 1 1 + . a v b .       ",
"        ] o 1 1 1 1 1 1 1 1 1 1 1 X Y       Q 1 1 1 1 T v T o b S n o a         ",
"          ! ( 1 1 1 1 1 1 1 1 1 1 Z .       ! 1 1 f Q g S + ` @ t 0 @           ",
"            @ | 1 1 1 1 1 1 1 1 : h         2 ( 1 P . . . . ` F o @             ",
"              ! o 1 1 1 1 1 1 1 (  .        p f 1 K S g 6 ..: o !               ",
"                ] b 1 1 1 1 1 1 f H         a I 1 1 1 1 1 1 b ]                 ",
"                  . ) T < 1 1 1 $ a           ..1 1 1 1 f ) .                   ",
"                      + R n 0 1 +.            - 1 T n R +                       ",
"                          . + 6 g             g 6 + .                           ",
"                                                                                "};
