/* XPM */
static char * player_left_xpm[] = {
"40 40 95 2",
"  	c None",
". 	c #010000",
"+ 	c #221901",
"@ 	c #4B3502",
"# 	c #956903",
"$ 	c #C38A04",
"% 	c #F9AE05",
"& 	c #FFB505",
"* 	c #CA9004",
"= 	c #090600",
"- 	c #5E4302",
"; 	c #BC8604",
"> 	c #E3A105",
", 	c #FFB80F",
"' 	c #FFC12C",
") 	c #FFBA14",
"! 	c #FFB60A",
"~ 	c #AA7904",
"{ 	c #614502",
"] 	c #171100",
"^ 	c #453101",
"/ 	c #D79804",
"( 	c #FFC334",
"_ 	c #FFD369",
": 	c #FFD05E",
"< 	c #FFCF5A",
"[ 	c #D49604",
"} 	c #8D6403",
"| 	c #EEA905",
"1 	c #FFD162",
"2 	c #FFC844",
"3 	c #3C2901",
"4 	c #FFBC1C",
"5 	c #DC9C04",
"6 	c #FFCA4A",
"7 	c #EBA305",
"8 	c #0E0A00",
"9 	c #654802",
"0 	c #FFBF24",
"a 	c #120C00",
"b 	c #1C1301",
"c 	c #F5AB05",
"d 	c #E39D04",
"e 	c #2A1E01",
"f 	c #855702",
"g 	c #543902",
"h 	c #916603",
"i 	c #EA9C04",
"j 	c #BE7C03",
"k 	c #F2A505",
"l 	c #DB8E04",
"m 	c #E29404",
"n 	c #9A6503",
"o 	c #855D02",
"p 	c #342501",
"q 	c #C37F04",
"r 	c #211601",
"s 	c #5A3B02",
"t 	c #DF9104",
"u 	c #7E5203",
"v 	c #3A2601",
"w 	c #B27E04",
"x 	c #A76D03",
"y 	c #C78104",
"z 	c #230C00",
"A 	c #471A00",
"B 	c #7E3701",
"C 	c #9F5001",
"D 	c #B67703",
"E 	c #CA7B03",
"F 	c #D38B04",
"G 	c #481900",
"H 	c #6B2600",
"I 	c #943500",
"J 	c #983700",
"K 	c #A24301",
"L 	c #B15601",
"M 	c #C46C02",
"N 	c #D27E03",
"O 	c #140700",
"P 	c #2A0F00",
"Q 	c #622300",
"R 	c #AA4C01",
"S 	c #B45901",
"T 	c #CA7503",
"U 	c #3E1F00",
"V 	c #623101",
"W 	c #8B4701",
"X 	c #AA5E02",
"Y 	c #AE7103",
"Z 	c #704502",
"` 	c #CB8404",
" .	c #442E01",
"..	c #8C5C03",
"+.	c #9F6803",
"                                  . . . . . .                                   ",
"                          . + @ # $ % & & % * # @ + =                           ",
"                      + - ; > & & & & , ' ' ) ! & > ~ { ]                       ",
"                  . ^ / % & & & & & & ( _ _ : < ( ! & & [ @ .                   ",
"                = } & | ; > & & & & ' _ _ _ _ _ _ 1 2 ) & & } =                 ",
"              3 > * ^ . . ] % & & & & , ) 4 ' ' 2 : _ 1 2 , & 5 ^               ",
"            3 5 ~ = . . = 3 % & & & & & & & & & & & 4 6 : : ) & 7 ^             ",
"          @ > # 8 . . = 9 | & & & & & & & & & & & & & & ) ( 6 0 & 7 @           ",
"        a > $ 3 } b = - c & & & & & & & & & & & & & & & & & ) 6 0 & d a         ",
"      . } c e e > & $ & & & & & & & & & & & & & & & & & & & & ! 0 , & f .       ",
"      g & h . b / & & & & & & & & & & & & & & & & & & & & & & & & ) & i @       ",
"    b [ & ^ . 8 * & & & & & & & & & & & & & & & & & & & & & & & & & & 7 j b     ",
"    - & & ] . ] / & & & & & & & & & & & & & & & & & & & & & & & & & & k l g     ",
"  . ~ & & 8 . 9 & & & & & & & & & & & & & & & & & & & & & & & & & & & k m n .   ",
"  b / & & o p [ & & & & & & & & & & & & & & & & & & & & & & & & & & & % l q r   ",
"  ^ & & & & & & & & & & & & & & & & & & & & & & & & & & & & & & & & & c m l 3   ",
"  ] s h ; [ 7 & & & & & & & & & & & & & & & & & & & & & & & & & & & & c t t u   ",
"        = + v @ 9 o w * 5 | & & & & & & & & & & & & & & & & & & & & & k t t x . ",
"                    . 8 b p @ o ; k & & & & & & & & & & & & & & & & & 7 t t y . ",
"                            . . z A B C D E F > & & & & & & & & & & & i t t F . ",
"                    . . z G H I I J K L M N m k & & & & & & & & & & & m t t F . ",
"              . O P Q J K R S T m % & & & & & & & & & & & & & & & & % t t t y . ",
"      = z U V W X T l i k % & & & & & & & & & & & & & & & & & & & & | t t t Y . ",
"  ] Z Y [ 7 c & & & & & & & & & & & & & & & & & & & & & & & & & & & d t t t u   ",
"  ^ & & & & & & & & & & & & & & & & & & & & & & & & & & & & & & & k t t t l 3   ",
"  b 5 & & & & & & & & & & & & & & & & & & & & & & & & & & & & & % m t t t q b   ",
"  . ~ & & & & & & & & & & & & & & & & & & & & & & & & & & & & & 7 t l m t n .   ",
"    - % & & & & & & & & & & & & & & & & & & & & & & & & & & & k m l m t l s     ",
"    b / & & & & & & & & & & & & & & & & & & & & & & & & & & % t m t t t j r     ",
"      g & & & & & & & & & & & & & & & & & & & & & & & & & & m t t t t l @       ",
"      . } & & & & & & & & & & & & & & & & & & & & & & & & m t t t t t f .       ",
"        a > & & & & & & & & & & & & & & & & & & & & & % t t t t t t y a         ",
"          @ | & & & & & & & & & & & & & & & & & & & i m t t m l m `  .          ",
"            3 7 & & & & & & & & & & & & & & & & c m t l l m l m y v             ",
"              @ > & & & & & & & & & & & & & k i l m t t m m l q 3               ",
"                a ..7 k % % & % % c k i m l m l m l t t l l f a                 ",
"                  .  .D l m t t t t t t l m l m t m t l j  ..                   ",
"                      b s n y t t t t t m l m l t y +.V r                       ",
"                          . r  ...D l t t F D ..^ b =                           ",
"                                  . . . . . .                                   "};
