/* XPM */
static char * player_up_xpm[] = {
"40 40 95 2",
"  	c None",
". 	c #010000",
"+ 	c #1C1301",
"@ 	c #453101",
"# 	c #171100",
"$ 	c #5E4302",
"% 	c #AA7904",
"& 	c #D79804",
"* 	c #FFB505",
"= 	c #5A3B02",
"- 	c #704502",
"; 	c #DC9C04",
"> 	c #543902",
", 	c #D49604",
"' 	c #916603",
") 	c #090600",
"! 	c #AE7103",
"~ 	c #F9AE05",
"{ 	c #120C00",
"] 	c #8D6403",
"^ 	c #BC8604",
"/ 	c #230C00",
"( 	c #4B3502",
"_ 	c #E3A105",
": 	c #F5AB05",
"< 	c #0E0A00",
"[ 	c #855D02",
"} 	c #221901",
"| 	c #3E1F00",
"1 	c #EBA305",
"2 	c #3C2901",
"3 	c #C38A04",
"4 	c #2A1E01",
"5 	c #342501",
"6 	c #3A2601",
"7 	c #623101",
"8 	c #EEA905",
"9 	c #956903",
"0 	c #654802",
"a 	c #8B4701",
"b 	c #CA9004",
"c 	c #140700",
"d 	c #AA5E02",
"e 	c #2A0F00",
"f 	c #CA7503",
"g 	c #8C5C03",
"h 	c #B27E04",
"i 	c #622300",
"j 	c #DB8E04",
"k 	c #442E01",
"l 	c #983700",
"m 	c #EA9C04",
"n 	c #F2A505",
"o 	c #B67703",
"p 	c #A24301",
"q 	c #481900",
"r 	c #AA4C01",
"s 	c #E29404",
"t 	c #9A6503",
"u 	c #6B2600",
"v 	c #B45901",
"w 	c #DF9104",
"x 	c #C78104",
"y 	c #211601",
"z 	c #943500",
"A 	c #471A00",
"B 	c #FFC12C",
"C 	c #7E3701",
"D 	c #FFB80F",
"E 	c #FFC334",
"F 	c #FFD369",
"G 	c #9F5001",
"H 	c #B15601",
"I 	c #FFBA14",
"J 	c #C46C02",
"K 	c #FFBC1C",
"L 	c #CA7B03",
"M 	c #D27E03",
"N 	c #D38B04",
"O 	c #FFD05E",
"P 	c #FFB60A",
"Q 	c #FFCF5A",
"R 	c #FFC844",
"S 	c #FFD162",
"T 	c #9F6803",
"U 	c #614502",
"V 	c #FFCA4A",
"W 	c #BE7C03",
"X 	c #855702",
"Y 	c #FFBF24",
"Z 	c #C37F04",
"` 	c #CB8404",
" .	c #E39D04",
"..	c #7E5203",
"+.	c #A76D03",
"                                                                                ",
"                          . + @ #             # @ + .                           ",
"                      + $ % & * =             - * ; % $ +                       ",
"                  . > , * * * * '           ) ! * * * ~ & > .                   ",
"                { ] * * * * * * ^ )         / , * * * * * * ] {                 ",
"              ( _ : ' @ # < [ * , }         | 1 * * * * * * * _ (               ",
"            2 _ 3 4 . . . . 5 * 1 6         7 : * * * * * * * * 8 2             ",
"          2 ; 9 2 4 + < # 0 , * * (       . a * * * * * * * * * * 1 (           ",
"        ) _ % < ] _ & b & * * * * 0       c d * * * * * * * * * * * _ {         ",
"      . ] b ) . + * * * * * * * * [       e f * * * * * * * * * * * * g .       ",
"      @ * @ . . ) 3 * * * * * * * h .   . i j * * * * * * * * * * * * 1 k       ",
"    } & 8 . . ) $ * * * * * * * * b <   . l m * * * * * * * * * * * * n o +     ",
"    $ ~ ^ . ) 0 : * * * * * * * * ; +   / p n * * * * * * * * * * * * ~ j =     ",
"  . ^ * _ # 2 8 * * * * * * * * * 8 5   q r ~ * * * * * * * * * * * * ~ s t .   ",
"  } _ * * ~ ~ * * * * * * * * * * * ( . u v * * * * * * * * * * * * * * w x y   ",
"  ( * * * * * * * * * * * * * * * * [ . z f * * * * * * * * * * * * * ~ w w k   ",
"  9 * * * * * * * * * * * * * * * * ^ / z s * * * * * * * * * * * * * ~ w w g   ",
". 3 * * * * * * * * * * * * * * * * n A l ~ * * * * * * * * * * * * * : w w o . ",
". ~ * * B * * * * * * * * * * * * * * C p * * * * * * * * * * * * * * n w w j . ",
". * D E F D * * * * * * * * * * * * * G H * * * * * * * * * * * * * * m w w w . ",
". * B F F I * * * * * * * * * * * * * o J * * * * * * * * * * * * * * s j s w . ",
". ~ B F F K * * * * * * * * * * * * * L M * * * * * * * * * * * * * * j s j N . ",
". b I O F B * * * * * * * * * * * * * N s * * * * * * * * * * * * * n s j s o . ",
"  9 P Q F B * * * * * * * * * * * * * _ n * * * * * * * * * * * * * m j s j g   ",
"  ( * E F R * * * * * * * * * * * * * * * * * * * * * * * * * * * : j s w w @   ",
"  } _ P S O * * * * * * * * * * * * * * * * * * * * * * * * * * * s s j s x +   ",
"  ) % * R F K * * * * * * * * * * * * * * * * * * * * * * * * * m w w w w T )   ",
"    U * I S V * * * * * * * * * * * * * * * * * * * * * * * * ~ s j w w j 7     ",
"    # , * R O I * * * * * * * * * * * * * * * * * * * * * * * w w j s j W y     ",
"      ( * D O E * * * * * * * * * * * * * * * * * * * * * * s w w s s j k       ",
"      . ] * I V I * * * * * * * * * * * * * * * * * * * ~ s w w s j j X .       ",
"        ) ; * Y V P * * * * * * * * * * * * * * * * * n w w w w j s Z {         ",
"          @ 1 * Y Y * * * * * * * * * * * * * * * ~ 1 s s w w w s x 2           ",
"            @ 1 * D I * * * * * * * * * * * * * n s w j w w w w ` 6             ",
"              (  .* * * * * * * * * * * * ~ 8  .w w j s w w w x k               ",
"                { X m 1 n n ~ : : n 1 m s w w w w w s w w j X {                 ",
"                  . ( W j s j s w w w w w w w w w w w j W ( .                   ",
"                      + > t Z j w w w w w w w w j Z t = y                       ",
"                          . y 2 ..+.x N N x ! ..2 + .                           ",
"                                  . . . . . .                                   "};
